<?xml version="1.0" encoding="UTF-8"?>
<svg width="279px" height="279px" viewBox="0 0 279 279" version="1.1" xmlns="http://www.w3.org/2000/svg" xmlns:xlink="http://www.w3.org/1999/xlink">
    <!-- Generator: Sketch 54.1 (76490) - https://sketchapp.com -->
    <title>mellow</title>
    <desc>Created with Sketch.</desc>
    <g id="Page-1" stroke="none" stroke-width="1" fill="none" fill-rule="evenodd">
        <g id="gelloh" transform="translate(2.000000, 2.000000)" stroke="#FFFEFC">
            <circle id="Oval" stroke-width="3.3" fill="#111111" cx="137.5" cy="137.5" r="137.5"></circle>
            <rect id="Rectangle" fill="#FFFEFC" transform="translate(185.719300, 113.719300) rotate(45.000000) translate(-185.719300, -113.719300) " x="143.2193" y="97.2193001" width="85" height="33" rx="8"></rect>
            <rect id="Rectangle-Copy" fill="#FFFEFC" transform="translate(222.229708, 113.729708) rotate(-45.000000) translate(-222.229708, -113.729708) " x="179.729708" y="97.2297077" width="85" height="33" rx="8"></rect>
            <rect id="Rectangle-Copy" fill="#FFFEFC" transform="translate(164.987067, 198.840620) rotate(-45.000000) translate(-164.987067, -198.840620) " x="114.487067" y="187.34062" width="101" height="23" rx="8"></rect>
            <rect id="Rectangle-Copy" fill="#FFFEFC" transform="translate(110.487067, 198.840620) rotate(45.000000) translate(-110.487067, -198.840620) " x="60.487067" y="187.34062" width="100" height="23" rx="8"></rect>
            <rect id="Rectangle" fill="#FFFEFC" transform="translate(53.719300, 113.719300) rotate(45.000000) translate(-53.719300, -113.719300) " x="11.2193001" y="97.2193001" width="85" height="33" rx="8"></rect>
            <rect id="Rectangle-Copy" fill="#FFFEFC" transform="translate(90.229708, 113.729708) rotate(-45.000000) translate(-90.229708, -113.729708) " x="47.7297077" y="97.2297077" width="85" height="33" rx="8"></rect>
        </g>
    </g>
</svg>